HIERARCHY
ROOT Hips
{
	OFFSET -0.179506 -22.333345 2.821913
	CHANNELS 6 Xposition Yposition Zposition Zrotation Yrotation Xrotation 
	JOINT LeftUpLeg
	{
		OFFSET 6.951974 -9.140623 -0.681533
		CHANNELS 3 Zrotation Yrotation Xrotation
		JOINT LeftLeg
		{
			OFFSET 3.427654 -37.519855 -0.449580
			CHANNELS 3 Zrotation Yrotation Xrotation
			JOINT LeftFoot
			{
				OFFSET -1.359570 -39.796059 -4.369333
				CHANNELS 3 Zrotation Yrotation Xrotation
				JOINT LeftToe
				{
					OFFSET 2.635814 -5.579078 11.928840
					CHANNELS 3 Zrotation Yrotation Xrotation
					End Site
					{
						OFFSET 0.000000 0.000000 0.000000
					}
				}
			}
		}
	}
	JOINT RightUpLeg
	{
		OFFSET -6.767048 -9.052170 -0.431982
		CHANNELS 3 Zrotation Yrotation Xrotation
		JOINT RightLeg
		{
			OFFSET -3.829005 -38.256897 -0.885003
			CHANNELS 3 Zrotation Yrotation Xrotation
			JOINT RightFoot
			{
				OFFSET 1.577377 -39.841461 -4.231180
				CHANNELS 3 Zrotation Yrotation Xrotation
				JOINT RightToe
				{
					OFFSET -2.537174 -4.814398 12.334795
					CHANNELS 3 Zrotation Yrotation Xrotation
					End Site
					{
						OFFSET 0.000000 0.000000 0.000000
					}
				}
			}
		}
	}
	JOINT Spine
	{
		OFFSET -0.253288 10.896323 -2.669631
		CHANNELS 3 Zrotation Yrotation Xrotation
		JOINT Spine1
		{
			OFFSET 0.548704 13.518043 0.109247
			CHANNELS 3 Zrotation Yrotation Xrotation
			JOINT Spine2
			{
				OFFSET 0.145701 5.292222 2.542457
				CHANNELS 3 Zrotation Yrotation Xrotation
				JOINT Neck
				{
					OFFSET -0.277840 21.387037 -4.285703
					CHANNELS 3 Zrotation Yrotation Xrotation
					JOINT Head
					{
						OFFSET 0.515184 6.496960 5.134897
						CHANNELS 3 Zrotation Yrotation Xrotation
						End Site
						{
							OFFSET 0.000000 0.000000 0.000000
						}
					}
				}
				JOINT LeftShoulder
				{
					OFFSET 7.884473 12.174932 -3.408961
					CHANNELS 3 Zrotation Yrotation Xrotation
					JOINT LeftArm
					{
						OFFSET 9.097692 3.046888 -0.886815
						CHANNELS 3 Zrotation Yrotation Xrotation
						JOINT LeftForeArm
						{
							OFFSET 25.961220 -1.277207 -2.745643
							CHANNELS 3 Zrotation Yrotation Xrotation
							JOINT LeftHand
							{
								OFFSET 24.923361 0.898606 -0.117091
								CHANNELS 3 Zrotation Yrotation Xrotation
								End Site
								{
									OFFSET 0.000000 0.000000 0.000000
								}
							}
						}
					}
				}
				JOINT RightShoulder
				{
					OFFSET -8.175920 11.883285 -3.861528
					CHANNELS 3 Zrotation Yrotation Xrotation
					JOINT RightArm
					{
						OFFSET -9.601238 3.255117 -0.914307
						CHANNELS 3 Zrotation Yrotation Xrotation
						JOINT RightForeArm
						{
							OFFSET -25.374195 -1.332924 -2.140099
							CHANNELS 3 Zrotation Yrotation Xrotation
							JOINT RightHand
							{
								OFFSET -25.529810 0.777228 -0.555919
								CHANNELS 3 Zrotation Yrotation Xrotation
								End Site
								{
									OFFSET 0.000000 0.000000 0.000000
								}
							}
						}
					}
				}
			}
		}
	}
}
MOTION
Frames: 18
Frame Time: 0.033333
1.866576 -8.249751 99.759148 175.456384 -0.669747 85.452864 5.412239 2.827671 10.072106 -3.913450 -1.681585 -6.471665 2.202401 9.108789 -4.263641 nan nan nan -4.659085 -3.396809 9.562166 3.241797 0.562777 -4.477640 5.993430 -2.915952 -2.358932 nan nan nan -0.725357 1.233288 5.186265 1.373170 -2.474517 3.525908 0.299869 -0.249482 -0.100865 -3.774637 0.354866 -3.515162 1.359803 -0.886303 1.263680 -26.911825 0.556760 9.819376 -55.740719 -5.118892 13.913569 8.291916 -58.403264 -3.165652 25.871352 -3.512133 -46.131521 27.406660 4.340471 8.987165 55.171564 4.631187 17.231079 -23.466291 51.411849 -18.198860 -22.713437 6.002481 -32.975894 
1.852323 -8.248591 99.747078 175.550375 -0.794429 85.657863 5.123392 2.130006 9.904162 -3.879141 -0.643670 -6.561683 1.983914 8.707762 -4.281982 nan nan nan -4.806854 -2.901846 9.476888 3.407079 -0.360773 -4.645708 6.267940 -2.634326 -2.262281 nan nan nan -0.874217 1.162893 4.561959 1.470265 -2.399797 4.471025 0.149843 -0.305605 -0.670369 -3.304848 0.985110 -3.654836 0.783424 -1.547970 1.457363 -27.095500 1.017332 10.411726 -54.933207 -5.664449 13.828698 7.566280 -58.921787 -1.608051 12.538343 -13.967262 -51.375855 27.522658 3.896836 9.201386 55.150519 4.994436 17.440099 -24.014317 51.412543 -18.095756 -10.590837 9.968030 -34.427976 
1.868014 -8.246674 99.758606 175.474051 -0.797886 85.663645 5.121799 2.115660 9.927708 -3.861081 -0.633169 -6.558400 1.960955 8.705213 -4.228985 nan nan nan -4.797154 -2.847839 9.448680 3.388771 -0.351643 -4.627986 6.331118 -2.587226 -2.187102 nan nan nan -0.885953 1.154092 4.533205 1.461103 -2.380954 4.520069 0.152207 -0.272259 -0.697963 -3.290927 0.993754 -3.615289 0.804645 -1.516094 1.361313 -27.075663 1.068985 10.378490 -54.949425 -5.633966 13.804250 7.651583 -58.897979 -1.648254 12.120449 -14.279859 -51.487464 27.495339 3.906277 9.203742 55.206174 4.987949 17.462973 -24.048111 51.434288 -18.129490 -10.041237 10.125769 -34.545673 
1.875553 -8.246790 99.760841 175.450821 -0.792152 85.666167 5.130289 2.127523 9.932348 -3.859466 -0.638616 -6.558232 1.940114 8.707832 -4.215132 nan nan nan -4.789278 -2.838293 9.429646 3.408779 -0.358083 -4.606683 6.363200 -2.587500 -2.168979 nan nan nan -0.878018 1.143909 4.538603 1.456246 -2.377500 4.511496 0.147541 -0.260784 -0.701174 -3.273433 1.005316 -3.600454 0.807673 -1.509741 1.353117 -27.079979 1.072292 10.357706 -54.928024 -5.611370 13.811785 7.602735 -58.904100 -1.554532 12.118973 -14.266933 -51.295861 27.495266 3.923159 9.208822 55.217817 4.984865 17.460092 -24.020933 51.428448 -18.123417 -10.087492 10.112261 -34.558071 
1.892160 -8.252753 99.762581 175.435155 -0.775191 85.700878 5.151698 2.122272 9.904232 -3.860255 -0.620952 -6.591966 1.834695 8.733506 -4.206631 nan nan nan -4.781436 -2.819489 9.380518 3.483225 -0.432305 -4.573306 6.487409 -2.594674 -2.162107 nan nan nan -0.901359 1.130835 4.482090 1.463497 -2.384731 4.501773 0.162578 -0.243149 -0.684154 -3.229637 1.197450 -3.432414 0.829151 -1.364543 1.288164 -27.043779 1.097148 10.358968 -54.899417 -5.598258 13.858930 7.558377 -58.907409 -1.488839 12.278888 -14.384944 -51.467441 27.472303 3.897642 9.240338 55.238517 5.037332 17.488758 -23.903105 51.429561 -17.996457 -10.316582 10.068405 -34.780307 
1.734451 -8.090130 99.707565 176.157634 -0.930557 85.998697 4.738285 1.487015 9.559677 -3.751493 -0.643137 -6.608676 2.693437 8.669991 -4.362051 nan nan nan -5.230699 -2.953906 9.707200 3.848777 -0.534327 -5.343343 6.638372 -2.868828 -2.022883 nan nan nan -0.864028 0.993400 3.595917 1.505087 -2.904734 4.729723 -0.010539 -0.343321 -0.265066 -3.232863 1.293082 -3.279623 0.861106 -1.012837 0.955512 -27.124039 1.151706 10.579927 -54.935455 -5.912082 13.663789 7.476623 -58.720460 -1.461108 12.108080 -15.128056 -51.874554 27.298180 3.876955 9.258299 55.395490 5.138300 17.516476 -24.354915 51.239894 -18.187288 -10.304351 10.469303 -33.877155 
1.729207 -8.068370 99.697250 176.127734 -0.968692 85.963203 4.728407 1.556256 9.642497 -3.801992 -0.634119 -6.651919 2.751123 8.702937 -4.351917 nan nan nan -5.274435 -2.982868 9.789167 3.802657 -0.480168 -5.377039 6.597043 -2.769401 -2.009097 nan nan nan -0.893134 1.036211 3.574704 1.475493 -2.941089 4.825564 -0.047764 -0.281485 -0.345966 -3.403076 1.697990 -2.800330 1.247698 -0.817164 0.803867 -27.018154 1.056815 10.650651 -55.015177 -5.880244 13.668792 7.496574 -58.777346 -1.423743 12.160371 -14.830039 -51.972563 27.302712 3.878012 9.315968 55.487777 5.126203 17.429165 -24.380187 51.267008 -18.112039 -10.322011 10.385546 -33.861835 
1.710324 -8.062281 99.692337 176.124435 -0.977786 85.923098 4.739608 1.559957 9.699376 -3.851802 -0.668516 -6.660471 2.851038 8.686629 -4.368658 nan nan nan -5.306905 -3.011667 9.836255 3.809263 -0.471594 -5.368865 6.599995 -2.762801 -1.973680 nan nan nan -0.854458 1.078793 3.611015 1.441221 -2.940993 4.862669 -0.064404 -0.283445 -0.409016 -3.476043 1.789874 -2.653568 1.432523 -0.783657 0.794085 -26.990123 0.979593 10.720153 -55.081709 -5.889854 13.648644 7.577726 -58.753696 -1.452400 12.076974 -14.745071 -51.886323 27.284146 3.917714 9.360411 55.557285 5.095571 17.363313 -24.457338 51.246995 -18.100533 -10.236194 10.416291 -33.790151 
1.694171 -8.062515 99.686760 176.114684 -0.968071 85.912714 4.745328 1.536553 9.702618 -3.864067 -0.667621 -6.644328 2.926714 8.655968 -4.395822 nan nan nan -5.310043 -2.983270 9.830838 3.818015 -0.470092 -5.328064 6.585600 -2.764633 -2.008991 nan nan nan -0.804179 1.079019 3.644131 1.430849 -2.919209 4.849527 -0.078240 -0.282775 -0.416801 -3.480582 1.788020 -2.713605 1.452306 -0.807055 0.882064 -26.972322 0.967953 10.764236 -55.142630 -5.947761 13.621244 7.654172 -58.647752 -1.482034 11.943916 -14.939860 -51.965749 27.234144 3.922331 9.379706 55.612014 5.108804 17.360362 -24.434413 51.251794 -18.014283 -10.114976 10.533753 -33.924973 
1.686328 -8.052952 99.687851 176.121325 -0.959197 85.920349 4.735134 1.544628 9.704963 -3.830514 -0.678966 -6.657976 2.965305 8.632074 -4.400903 nan nan nan -5.303625 -2.959245 9.819342 3.814487 -0.459519 -5.304704 6.565747 -2.789893 -2.050367 nan nan nan -0.790017 1.046496 3.658724 1.445082 -2.889366 4.796670 -0.060123 -0.286092 -0.360959 -3.414195 1.640146 -2.893976 1.348044 -0.871160 0.950257 -26.992022 1.008399 10.734597 -55.163327 -5.997045 13.624744 7.619074 -58.570252 -1.433456 11.933194 -15.053439 -52.124786 27.196369 3.910416 9.353618 55.599035 5.105810 17.408618 -24.368599 51.319164 -18.005271 -10.138761 10.599051 -34.221220 
1.657302 -8.032765 99.698746 176.165243 -0.932946 85.957932 4.739950 1.824744 9.557286 -3.765826 -0.802353 -6.383253 3.155834 8.433732 -4.656331 nan nan nan -5.328635 -2.932523 9.841455 3.898420 -0.568432 -5.333754 6.776875 -2.778657 -2.052783 nan nan nan -0.879871 0.824852 3.627504 1.459415 -2.723414 4.727785 0.217006 -0.351017 -0.224978 -3.668109 0.563514 -3.540710 1.211892 -0.189589 1.598549 -27.094501 1.253587 10.957506 -55.330889 -6.311897 13.706154 8.490979 -58.263120 -2.084803 10.160622 -17.173916 -51.722523 26.935369 4.079096 8.913117 55.032484 5.353190 16.670426 -17.276449 51.660054 -13.490830 -0.142322 17.800302 -42.425535 
1.668433 -8.021593 99.711830 176.171886 -0.922748 85.980784 4.757941 1.811935 9.531354 -3.768193 -0.763124 -6.331929 2.982500 8.468172 -4.684753 nan nan nan -5.305071 -2.914167 9.864922 3.910926 -0.595178 -5.374420 6.759664 -2.820405 -2.053443 nan nan nan -0.918568 0.816469 3.585417 1.516462 -2.755608 4.714159 0.229087 -0.363470 -0.130354 -3.584238 0.466074 -3.699618 1.037616 -0.252682 1.597608 -27.127023 1.309074 10.903863 -55.281160 -6.272888 13.741602 8.488160 -58.368841 -1.998798 10.149108 -17.189986 -51.797493 26.889292 4.045843 8.810434 55.096394 5.342950 16.761708 -17.332850 51.690393 -13.362793 0.041002 17.706654 -42.420916 
1.680934 -8.012386 99.715576 176.177868 -0.960504 86.023132 4.701465 1.780867 9.465315 -3.716716 -0.722345 -6.270219 3.017490 8.503576 -4.675124 nan nan nan -5.334528 -2.888313 9.862927 3.927180 -0.599685 -5.424429 6.755411 -2.841302 -2.027651 nan nan nan -1.019738 0.816312 3.512644 1.565811 -2.780031 4.734557 0.238444 -0.365280 -0.109380 -3.556299 0.486649 -3.704793 1.003539 -0.275713 1.587303 -27.124873 1.382700 10.884263 -55.250071 -6.263510 13.754462 8.439397 -58.411490 -1.840671 9.984268 -17.248015 -51.774503 26.881214 3.997946 8.772475 55.163649 5.345823 16.829745 -17.401690 51.707256 -13.309764 0.259674 17.688826 -42.394596 
1.668366 -8.004179 99.712463 176.172752 -0.994977 86.033049 4.633965 1.793005 9.453129 -3.652669 -0.711129 -6.259539 3.105159 8.515745 -4.646392 nan nan nan -5.386708 -2.868105 9.856105 3.920027 -0.571117 -5.411218 6.780627 -2.825881 -2.019007 nan nan nan -1.016301 0.828602 3.498856 1.544712 -2.775561 4.743573 0.205823 -0.392870 -0.116763 -3.546108 0.472895 -3.700841 1.037654 -0.315541 1.566459 -27.079023 1.440409 10.860509 -55.257620 -6.259102 13.755410 8.400733 -58.434982 -1.670336 9.903502 -17.332554 -51.791704 26.855477 3.988357 8.749475 55.235579 5.337600 16.852752 -17.382900 51.736314 -13.197861 0.438932 17.740909 -42.474074 
1.644698 -7.991561 99.709229 176.160357 -0.983253 86.003729 4.658064 1.850181 9.502249 -3.685272 -0.764996 -6.271514 3.111785 8.498378 -4.639605 nan nan nan -5.412311 -2.885403 9.870072 3.936034 -0.556216 -5.370034 6.779905 -2.834553 -2.021876 nan nan nan -0.918775 0.833275 3.560090 1.508356 -2.754952 4.726425 0.157254 -0.418316 -0.134019 -3.551013 0.423563 -3.679576 1.056990 -0.317495 1.530437 -27.097145 1.448589 10.827910 -55.229541 -6.188296 13.758520 8.405318 -58.526735 -1.645905 10.010022 -17.191786 -51.912149 26.814598 4.023018 8.721237 55.288583 5.269558 16.899373 -17.437685 51.798938 -13.184247 0.327309 17.666586 -42.470604 
1.633120 -7.981309 99.706940 176.176459 -0.961485 85.988623 4.727817 1.872900 9.538512 -3.776851 -0.830719 -6.302096 3.138519 8.471259 -4.615213 nan nan nan -5.410676 -2.922321 9.866597 3.953157 -0.583519 -5.322593 6.740981 -2.842566 -2.020836 nan nan nan -0.885167 0.846036 3.581544 1.518805 -2.755296 4.750804 0.164980 -0.438251 -0.169747 -3.550197 0.370428 -3.626826 1.021763 -0.265603 1.453768 -27.137182 1.428842 10.848466 -55.225457 -6.172719 13.748843 8.434441 -58.563165 -1.666300 10.118213 -17.063150 -52.052730 26.785594 4.039347 8.724545 55.292117 5.214773 16.924137 -17.530033 51.874290 -13.211668 0.161430 17.658464 -42.495729 
1.628759 -7.967039 99.704498 176.199492 -0.954584 85.959796 4.774598 1.879589 9.593877 -3.837756 -0.844333 -6.337012 3.121799 8.445927 -4.620082 nan nan nan -5.412936 -2.924921 9.920399 3.956660 -0.589640 -5.339144 6.768966 -2.803721 -2.015594 nan nan nan -0.893283 0.864611 3.570583 1.521662 -2.763148 4.821507 0.189391 -0.440292 -0.208916 -3.542861 0.351685 -3.624645 1.019151 -0.272484 1.472340 -27.143721 1.379865 10.913630 -55.240811 -6.207470 13.718614 8.468968 -58.519120 -1.632824 10.161527 -17.172069 -52.141729 26.770445 4.043152 8.768692 55.307146 5.212643 16.875203 -17.569157 51.918073 -13.223251 0.193047 17.722658 -42.691878 
1.624248 -7.967117 99.702393 176.204993 -0.978353 85.951353 4.741406 1.862170 9.601566 -3.822172 -0.830281 -6.326741 3.162060 8.461719 -4.638304 nan nan nan -5.431130 -2.904997 9.937612 3.939551 -0.618436 -5.356038 6.855766 -2.758222 -2.012462 nan nan nan -0.920736 0.880489 3.595947 1.515928 -2.771840 4.816139 0.201734 -0.441901 -0.206791 -3.559419 0.357221 -3.649510 1.026795 -0.322856 1.456206 -27.134652 1.380427 10.899231 -55.248221 -6.224060 13.734872 8.450498 -58.473022 -1.629450 10.228465 -17.254395 -52.096791 26.767797 4.030303 8.749948 55.339642 5.226363 16.871491 -17.582291 51.910303 -13.247986 0.282851 17.733253 -42.676628 
